<svg xmlns="http://www.w3.org/2000/svg" width="24" height="24" viewBox="0 0 24 24"><g class="nc-icon-wrapper" fill="#424242"><path fill-rule="evenodd" d="M12 15a3 3 0 1 1 0-6 3 3 0 0 1 0 6zm0-2a1 1 0 1 0 0-2 1 1 0 0 0 0 2zM4.408 4.04l1.478 1.355A8.976 8.976 0 0 0 3 12c0 2.61 1.111 4.96 2.886 6.604L4.408 19.96A10.969 10.969 0 0 1 1 12C1 8.87 2.308 6.044 4.408 4.04zm2.959 2.712l1.485 1.362A4.99 4.99 0 0 0 7 12a4.99 4.99 0 0 0 1.852 3.885l-1.485 1.362A6.983 6.983 0 0 1 5 12c0-2.09.915-3.965 2.367-5.248zM19.592 4.04A10.969 10.969 0 0 1 23 12c0 3.131-1.308 5.956-3.408 7.96l-1.478-1.355A8.976 8.976 0 0 0 21 12c0-2.61-1.111-4.96-2.886-6.605l1.478-1.355zm-2.959 2.713A6.983 6.983 0 0 1 19 12c0 2.09-.915 3.965-2.367 5.247l-1.485-1.362A4.99 4.99 0 0 0 17 12a4.99 4.99 0 0 0-1.852-3.885l1.485-1.362z"/></g></svg>