<svg xmlns="http://www.w3.org/2000/svg" width="20" height="20" viewBox="0 0 20 20"><g class="nc-icon-wrapper" fill="#424242"><g id="Page-1" stroke="none" stroke-width="1" fill="none" fill-rule="evenodd"><g id="Dribbble-Light-Preview" transform="translate(-100 -7159)" fill="#424242"><g id="icons" transform="translate(56 160)"><path d="M62 7012a1 1 0 0 1-.999 1H47.006a1 1 0 0 1-1-1v-10a1 1 0 0 1 1-1H61a1 1 0 0 1 1 1v10zm-.01-13H45.993c-1.103 0-1.992.915-1.992 2.02l.007.02v12l-.007-.02c0 1.105.889 1.98 1.992 1.98H51.99c.553 0 1.014.468 1.014 1.02v-.01c0 .552-.461.99-1.014.99h-2.999c-.552 0-.985.468-.985 1.02v-.01c0 .552.433.99.985.99h9.997c.553 0 1.013-.428 1.013-.98v-.01c0-.552-.46-1.01-1.013-1.01h-3a.971.971 0 0 1-.985-.98v-.01c0-.552.434-1.01.986-1.01h6.002l.007.02c1.101 0 2.002-.874 2.002-1.977v-12.006c0-1.103-.9-2.017-2.002-2.017l-.007-.02z" id="desktop-[#232]"/></g></g></g></g></svg>