<svg xmlns="http://www.w3.org/2000/svg" width="17" height="20" viewBox="0 0 17 20"><g class="nc-icon-wrapper" fill="#424242"><g id="Page-1" stroke="none" stroke-width="1" fill="none" fill-rule="evenodd"><g id="Dribbble-Light-Preview" transform="translate(-141 -720)" fill="#424242"><g id="icons" transform="translate(56 160)"><path d="M97.75 574h-8.5v-6c0-2.666 2.125-4 4.249-4h.002c2.124 0 4.249 1.334 4.249 4v6zm-3.188 3c0 .552-.475 1-1.062 1-.587 0-1.063-.448-1.063-1v-1h2.126v1zm6.376-3h-1.063v-6c0-3.553-2.516-5.525-5.313-5.921V560h-2.124v2.079c-2.797.396-5.313 2.368-5.313 5.921v6h-1.063c-.586 0-1.062.448-1.062 1s.476 1 1.063 1h4.25v1c0 1.657 1.426 3 3.187 3 1.76 0 3.188-1.343 3.188-3v-1h4.25c.586 0 1.062-.448 1.062-1s-.476-1-1.063-1z" id="notification_bell-[#1398]"/></g></g></g></g></svg>